<svg width="1420" height="265" viewBox="0 0 1420 265" fill="none" xmlns="http://www.w3.org/2000/svg">
<rect width="1420" height="265" fill="#C63A3A"/>
<path d="M780.014 156.777C781.088 156.777 782.081 156.558 782.992 156.118C783.904 155.679 784.652 155.076 785.238 154.312C785.824 153.53 786.158 152.643 786.239 151.65H790.536C790.455 153.213 789.926 154.67 788.949 156.021C787.989 157.355 786.728 158.438 785.165 159.268C783.603 160.081 781.885 160.488 780.014 160.488C778.028 160.488 776.295 160.138 774.813 159.438C773.349 158.739 772.128 157.778 771.151 156.558C770.191 155.337 769.467 153.937 768.979 152.358C768.507 150.763 768.271 149.079 768.271 147.305V146.279C768.271 144.505 768.507 142.829 768.979 141.25C769.467 139.655 770.191 138.247 771.151 137.026C772.128 135.806 773.349 134.845 774.813 134.146C776.295 133.446 778.028 133.096 780.014 133.096C782.081 133.096 783.887 133.519 785.434 134.365C786.98 135.195 788.192 136.335 789.071 137.783C789.966 139.215 790.455 140.843 790.536 142.666H786.239C786.158 141.576 785.849 140.591 785.312 139.712C784.791 138.833 784.075 138.133 783.163 137.612C782.268 137.075 781.218 136.807 780.014 136.807C778.63 136.807 777.466 137.083 776.522 137.637C775.595 138.174 774.854 138.906 774.301 139.834C773.764 140.745 773.373 141.763 773.129 142.886C772.901 143.993 772.787 145.124 772.787 146.279V147.305C772.787 148.46 772.901 149.6 773.129 150.723C773.357 151.846 773.739 152.863 774.276 153.774C774.83 154.686 775.57 155.418 776.498 155.972C777.442 156.509 778.614 156.777 780.014 156.777ZM800.521 133.584V160H796.005V133.584H800.521ZM817.855 133.584L805.331 148.721H799.008L798.324 144.766H803.5L812.362 133.584H817.855ZM812.997 160L803.28 148.037L806.186 144.766L818.734 160H812.997ZM827.548 152.847L839.73 133.584H844.271V160H839.73V140.737L827.548 160H823.056V133.584H827.548V152.847ZM856.283 133.584H860.8L860.409 143.472C860.312 145.978 860.027 148.143 859.555 149.966C859.083 151.789 858.48 153.343 857.748 154.629C857.016 155.898 856.194 156.965 855.282 157.827C854.387 158.69 853.459 159.414 852.499 160H850.253L850.375 156.313L851.303 156.289C851.84 155.654 852.361 155.003 852.865 154.336C853.37 153.652 853.834 152.847 854.257 151.919C854.68 150.975 855.03 149.827 855.307 148.477C855.6 147.109 855.787 145.441 855.868 143.472L856.283 133.584ZM857.406 133.584H873.3V160H868.783V137.759H857.406V133.584ZM849.228 156.289H876.693V167.788H872.177V160H853.744V167.788H849.203L849.228 156.289ZM886.605 133.584V160H882.089V133.584H886.605ZM903.939 133.584L891.415 148.721H885.092L884.408 144.766H889.584L898.446 133.584H903.939ZM899.081 160L889.364 148.037L892.27 144.766L904.818 160H899.081ZM913.632 152.847L925.814 133.584H930.355V160H925.814V140.737L913.632 160H909.14V133.584H913.632V152.847ZM954.77 133.584H959.286L958.896 143.472C958.798 145.978 958.513 148.143 958.041 149.966C957.569 151.789 956.967 153.343 956.234 154.629C955.502 155.898 954.68 156.965 953.769 157.827C952.873 158.69 951.946 159.414 950.985 160H948.739L948.861 156.313L949.789 156.289C950.326 155.654 950.847 155.003 951.352 154.336C951.856 153.652 952.32 152.847 952.743 151.919C953.166 150.975 953.516 149.827 953.793 148.477C954.086 147.109 954.273 145.441 954.354 143.472L954.77 133.584ZM955.893 133.584H971.786V160H967.27V137.759H955.893V133.584ZM947.714 156.289H975.18V167.788H970.663V160H952.23V167.788H947.689L947.714 156.289ZM978.988 147.085V146.523C978.988 144.619 979.265 142.853 979.818 141.226C980.372 139.582 981.169 138.158 982.211 136.953C983.253 135.732 984.514 134.788 985.995 134.121C987.476 133.438 989.136 133.096 990.976 133.096C992.831 133.096 994.499 133.438 995.98 134.121C997.478 134.788 998.747 135.732 999.789 136.953C1000.85 138.158 1001.65 139.582 1002.21 141.226C1002.76 142.853 1003.04 144.619 1003.04 146.523V147.085C1003.04 148.989 1002.76 150.755 1002.21 152.383C1001.65 154.01 1000.85 155.435 999.789 156.655C998.747 157.86 997.486 158.804 996.005 159.487C994.54 160.155 992.88 160.488 991.024 160.488C989.169 160.488 987.501 160.155 986.02 159.487C984.538 158.804 983.269 157.86 982.211 156.655C981.169 155.435 980.372 154.01 979.818 152.383C979.265 150.755 978.988 148.989 978.988 147.085ZM983.505 146.523V147.085C983.505 148.403 983.66 149.648 983.969 150.82C984.278 151.976 984.742 153.001 985.36 153.896C985.995 154.792 986.785 155.5 987.729 156.021C988.673 156.525 989.771 156.777 991.024 156.777C992.261 156.777 993.344 156.525 994.271 156.021C995.215 155.5 995.997 154.792 996.615 153.896C997.234 153.001 997.698 151.976 998.007 150.82C998.332 149.648 998.495 148.403 998.495 147.085V146.523C998.495 145.221 998.332 143.993 998.007 142.837C997.698 141.665 997.226 140.632 996.591 139.736C995.972 138.825 995.191 138.109 994.247 137.588C993.319 137.067 992.229 136.807 990.976 136.807C989.739 136.807 988.648 137.067 987.704 137.588C986.776 138.109 985.995 138.825 985.36 139.736C984.742 140.632 984.278 141.665 983.969 142.837C983.66 143.993 983.505 145.221 983.505 146.523ZM1044.64 148.037V151.748H1018.95V149.087L1034.87 124.453H1038.56L1034.6 131.582L1024.08 148.037H1044.64ZM1039.68 124.453V160H1035.17V124.453H1039.68ZM1071.05 139.395V144.814C1071.05 147.728 1070.79 150.186 1070.27 152.188C1069.75 154.189 1069 155.801 1068.03 157.021C1067.05 158.242 1065.87 159.129 1064.49 159.683C1063.12 160.22 1061.57 160.488 1059.85 160.488C1058.48 160.488 1057.22 160.317 1056.06 159.976C1054.91 159.634 1053.87 159.089 1052.94 158.34C1052.03 157.575 1051.25 156.582 1050.59 155.361C1049.94 154.141 1049.45 152.66 1049.11 150.918C1048.76 149.176 1048.59 147.142 1048.59 144.814V139.395C1048.59 136.481 1048.85 134.04 1049.37 132.07C1049.91 130.101 1050.67 128.522 1051.64 127.334C1052.62 126.13 1053.79 125.267 1055.16 124.746C1056.54 124.225 1058.09 123.965 1059.8 123.965C1061.18 123.965 1062.45 124.136 1063.61 124.478C1064.78 124.803 1065.82 125.332 1066.73 126.064C1067.64 126.781 1068.42 127.741 1069.05 128.945C1069.7 130.133 1070.2 131.59 1070.54 133.315C1070.88 135.041 1071.05 137.067 1071.05 139.395ZM1066.51 145.547V138.638C1066.51 137.043 1066.42 135.643 1066.22 134.438C1066.04 133.218 1065.77 132.176 1065.41 131.313C1065.06 130.451 1064.6 129.751 1064.05 129.214C1063.51 128.677 1062.88 128.286 1062.17 128.042C1061.47 127.782 1060.68 127.651 1059.8 127.651C1058.72 127.651 1057.77 127.855 1056.94 128.262C1056.11 128.652 1055.41 129.279 1054.84 130.142C1054.29 131.004 1053.87 132.135 1053.57 133.535C1053.28 134.935 1053.13 136.636 1053.13 138.638V145.547C1053.13 147.142 1053.22 148.55 1053.4 149.771C1053.6 150.991 1053.88 152.049 1054.26 152.944C1054.63 153.823 1055.09 154.548 1055.62 155.117C1056.16 155.687 1056.78 156.11 1057.48 156.387C1058.2 156.647 1058.99 156.777 1059.85 156.777C1060.95 156.777 1061.92 156.566 1062.75 156.143C1063.58 155.719 1064.27 155.06 1064.83 154.165C1065.4 153.254 1065.82 152.09 1066.1 150.674C1066.37 149.242 1066.51 147.533 1066.51 145.547ZM1076.47 133.169V131.289C1076.47 129.938 1076.77 128.709 1077.35 127.603C1077.94 126.496 1078.78 125.609 1079.87 124.941C1080.96 124.274 1082.25 123.94 1083.75 123.94C1085.28 123.94 1086.58 124.274 1087.66 124.941C1088.75 125.609 1089.58 126.496 1090.17 127.603C1090.76 128.709 1091.05 129.938 1091.05 131.289V133.169C1091.05 134.487 1090.76 135.7 1090.17 136.807C1089.6 137.913 1088.77 138.8 1087.68 139.468C1086.61 140.135 1085.31 140.469 1083.8 140.469C1082.28 140.469 1080.97 140.135 1079.87 139.468C1078.78 138.8 1077.94 137.913 1077.35 136.807C1076.77 135.7 1076.47 134.487 1076.47 133.169ZM1079.87 131.289V133.169C1079.87 133.918 1080.01 134.626 1080.28 135.293C1080.58 135.96 1081.01 136.506 1081.6 136.929C1082.19 137.336 1082.92 137.539 1083.8 137.539C1084.68 137.539 1085.4 137.336 1085.97 136.929C1086.54 136.506 1086.96 135.96 1087.24 135.293C1087.52 134.626 1087.66 133.918 1087.66 133.169V131.289C1087.66 130.524 1087.51 129.808 1087.22 129.141C1086.94 128.457 1086.51 127.912 1085.92 127.505C1085.35 127.082 1084.63 126.87 1083.75 126.87C1082.89 126.87 1082.16 127.082 1081.58 127.505C1081.01 127.912 1080.58 128.457 1080.28 129.141C1080.01 129.808 1079.87 130.524 1079.87 131.289ZM1093.78 153.188V151.284C1093.78 149.95 1094.08 148.729 1094.66 147.622C1095.25 146.515 1096.09 145.628 1097.18 144.961C1098.27 144.294 1099.56 143.96 1101.06 143.96C1102.59 143.96 1103.89 144.294 1104.96 144.961C1106.06 145.628 1106.89 146.515 1107.48 147.622C1108.07 148.729 1108.36 149.95 1108.36 151.284V153.188C1108.36 154.523 1108.07 155.744 1107.48 156.851C1106.91 157.957 1106.08 158.844 1104.99 159.512C1103.92 160.179 1102.62 160.513 1101.11 160.513C1099.59 160.513 1098.29 160.179 1097.2 159.512C1096.11 158.844 1095.26 157.957 1094.66 156.851C1094.08 155.744 1093.78 154.523 1093.78 153.188ZM1097.18 151.284V153.188C1097.18 153.937 1097.32 154.653 1097.59 155.337C1097.88 156.004 1098.32 156.549 1098.91 156.973C1099.5 157.38 1100.23 157.583 1101.11 157.583C1101.99 157.583 1102.71 157.38 1103.28 156.973C1103.87 156.549 1104.3 156.004 1104.57 155.337C1104.85 154.67 1104.99 153.953 1104.99 153.188V151.284C1104.99 150.519 1104.84 149.803 1104.55 149.136C1104.27 148.468 1103.84 147.931 1103.26 147.524C1102.69 147.101 1101.95 146.89 1101.06 146.89C1100.2 146.89 1099.47 147.101 1098.89 147.524C1098.32 147.931 1097.88 148.468 1097.59 149.136C1097.32 149.803 1097.18 150.519 1097.18 151.284ZM1102.18 129.507L1084.82 157.29L1082.28 155.679L1099.64 127.896L1102.18 129.507Z" fill="white"/>
<path d="M315.64 162V118.38H323.92L342.34 147.72L343.18 150.12L343.06 147.72V118.38H350.62V162H343.06L323.8 131.46L322.84 129.3L322.96 131.34V162H315.64ZM375.239 162.78C372.499 162.78 370.129 162.3 368.129 161.34C366.129 160.36 364.479 159.06 363.179 157.44C361.899 155.8 360.949 153.99 360.329 152.01C359.709 150.01 359.399 148 359.399 145.98C359.399 142.68 360.099 139.85 361.499 137.49C362.919 135.13 364.819 133.33 367.199 132.09C369.579 130.83 372.219 130.2 375.119 130.2C377.339 130.2 379.349 130.64 381.149 131.52C382.969 132.38 384.449 133.6 385.589 135.18C386.749 136.76 387.449 138.63 387.689 140.79C387.949 142.95 387.639 145.32 386.759 147.9H369.959C370.379 146.52 371.009 145.36 371.849 144.42C372.689 143.46 373.619 142.98 374.639 142.98H379.979C380.139 141.76 380.029 140.62 379.649 139.56C379.269 138.5 378.649 137.65 377.789 137.01C376.949 136.35 375.919 136.02 374.699 136.02C373.599 136.02 372.509 136.35 371.429 137.01C370.349 137.67 369.449 138.71 368.729 140.13C368.029 141.55 367.679 143.4 367.679 145.68C367.679 147.98 368.029 149.95 368.729 151.59C369.449 153.21 370.439 154.45 371.699 155.31C372.979 156.17 374.459 156.6 376.139 156.6C377.519 156.6 378.889 156.43 380.249 156.09C381.609 155.73 383.159 155.16 384.899 154.38L386.999 159.96C384.839 160.98 382.799 161.7 380.879 162.12C378.979 162.56 377.099 162.78 375.239 162.78ZM422.606 162L411.626 130.98H420.506L426.746 152.94L427.166 154.74L427.586 152.94L433.766 130.98H442.466L431.546 162H422.606ZM402.686 162L391.766 130.98H400.586L406.826 152.94L407.246 154.74L407.666 152.94L412.106 141.18C412.746 142.34 413.316 143.82 413.816 145.62C414.336 147.4 414.616 149.28 414.656 151.26C414.716 153.22 414.386 155.06 413.666 156.78L411.446 162H402.686ZM480.861 162.66C479.761 162.66 478.761 162.59 477.861 162.45C476.961 162.33 475.641 162.06 473.901 161.64C474.221 160.94 474.641 160.2 475.161 159.42C475.681 158.64 476.331 157.98 477.111 157.44C477.891 156.88 478.821 156.6 479.901 156.6C479.941 156.6 479.981 156.6 480.021 156.6C480.081 156.6 480.121 156.6 480.141 156.6C481.521 156.56 482.741 156.27 483.801 155.73C484.881 155.17 485.731 154.38 486.351 153.36C486.971 152.34 487.281 151.1 487.281 149.64C487.281 148.06 486.831 146.7 485.931 145.56C485.051 144.4 483.831 143.51 482.271 142.89C480.711 142.27 478.941 141.96 476.961 141.96H471.561V162H463.161V119.04C465.301 118.68 467.131 118.4 468.651 118.2C470.171 117.98 471.571 117.83 472.851 117.75C474.151 117.65 475.521 117.6 476.961 117.6C480.561 117.6 483.591 118.12 486.051 119.16C488.511 120.18 490.371 121.61 491.631 123.45C492.891 125.29 493.521 127.44 493.521 129.9C493.521 131.36 493.061 132.82 492.141 134.28C491.221 135.74 490.021 136.94 488.541 137.88L486.801 138.72L488.481 139.14C489.941 139.66 491.241 140.48 492.381 141.6C493.541 142.72 494.451 143.99 495.111 145.41C495.771 146.83 496.101 148.26 496.101 149.7C496.101 151.24 495.751 152.78 495.051 154.32C494.351 155.84 493.341 157.23 492.021 158.49C490.701 159.75 489.101 160.76 487.221 161.52C485.341 162.28 483.221 162.66 480.861 162.66ZM471.561 136.32H476.961C478.341 136.32 479.631 136.05 480.831 135.51C482.031 134.97 483.001 134.23 483.741 133.29C484.501 132.33 484.881 131.22 484.881 129.96C484.881 129.02 484.611 128.07 484.071 127.11C483.551 126.13 482.711 125.31 481.551 124.65C480.391 123.99 478.861 123.66 476.961 123.66C475.881 123.66 474.981 123.69 474.261 123.75C473.541 123.81 472.641 123.92 471.561 124.08V136.32ZM510.606 162.78C508.686 162.78 507.026 162.36 505.626 161.52C504.246 160.66 503.176 159.54 502.416 158.16C501.676 156.78 501.306 155.3 501.306 153.72C501.306 152.06 501.796 150.49 502.776 149.01C503.756 147.53 505.436 146.28 507.816 145.26C510.216 144.22 513.526 143.54 517.746 143.22C517.606 144.16 517.376 145.03 517.056 145.83C516.736 146.61 516.296 147.26 515.736 147.78C515.196 148.3 514.506 148.64 513.666 148.8C512.666 148.96 511.846 149.24 511.206 149.64C510.566 150.04 510.096 150.53 509.796 151.11C509.496 151.67 509.346 152.28 509.346 152.94C509.346 153.98 509.716 154.85 510.456 155.55C511.196 156.25 512.086 156.6 513.126 156.6C514.266 156.6 515.416 156.21 516.576 155.43C517.756 154.63 518.866 153.62 519.906 152.4V143.34C519.906 141.26 519.326 139.6 518.166 138.36C517.026 137.12 515.406 136.5 513.306 136.5C512.326 136.5 511.266 136.6 510.126 136.8C508.986 137 507.706 137.36 506.286 137.88L504.246 132.6C506.026 131.78 507.856 131.2 509.736 130.86C511.636 130.5 513.286 130.32 514.686 130.32C518.946 130.32 522.226 131.44 524.526 133.68C526.846 135.92 528.006 139.14 528.006 143.34V154.44C528.006 155.54 528.076 156.72 528.216 157.98C528.356 159.24 528.606 160.58 528.966 162H522.786C522.246 161.7 521.796 161.28 521.436 160.74C521.096 160.18 520.806 159.6 520.566 159L520.386 157.8L519.666 158.82C517.866 160.46 516.286 161.53 514.926 162.03C513.586 162.53 512.146 162.78 510.606 162.78ZM535.926 162V116.52H544.266V162H535.926ZM560.059 162.78C558.139 162.78 556.479 162.36 555.079 161.52C553.699 160.66 552.629 159.54 551.869 158.16C551.129 156.78 550.759 155.3 550.759 153.72C550.759 152.06 551.249 150.49 552.229 149.01C553.209 147.53 554.889 146.28 557.269 145.26C559.669 144.22 562.979 143.54 567.199 143.22C567.059 144.16 566.829 145.03 566.509 145.83C566.189 146.61 565.749 147.26 565.189 147.78C564.649 148.3 563.959 148.64 563.119 148.8C562.119 148.96 561.299 149.24 560.659 149.64C560.019 150.04 559.549 150.53 559.249 151.11C558.949 151.67 558.799 152.28 558.799 152.94C558.799 153.98 559.169 154.85 559.909 155.55C560.649 156.25 561.539 156.6 562.579 156.6C563.719 156.6 564.869 156.21 566.029 155.43C567.209 154.63 568.319 153.62 569.359 152.4V143.34C569.359 141.26 568.779 139.6 567.619 138.36C566.479 137.12 564.859 136.5 562.759 136.5C561.779 136.5 560.719 136.6 559.579 136.8C558.439 137 557.159 137.36 555.739 137.88L553.699 132.6C555.479 131.78 557.309 131.2 559.189 130.86C561.089 130.5 562.739 130.32 564.139 130.32C568.399 130.32 571.679 131.44 573.979 133.68C576.299 135.92 577.459 139.14 577.459 143.34V154.44C577.459 155.54 577.529 156.72 577.669 157.98C577.809 159.24 578.059 160.58 578.419 162H572.239C571.699 161.7 571.249 161.28 570.889 160.74C570.549 160.18 570.259 159.6 570.019 159L569.839 157.8L569.119 158.82C567.319 160.46 565.739 161.53 564.379 162.03C563.039 162.53 561.599 162.78 560.059 162.78ZM603.439 162V139.98C603.439 138.98 603.229 138.16 602.809 137.52C602.409 136.88 601.699 136.56 600.679 136.56C600.299 136.56 599.929 136.61 599.569 136.71C599.209 136.81 598.739 136.88 598.159 136.92C597.199 136.98 596.389 136.58 595.729 135.72C595.089 134.84 594.479 133.92 593.899 132.96C595.879 131.9 597.619 131.18 599.119 130.8C600.619 130.4 602.059 130.2 603.439 130.2C604.819 130.2 606.149 130.55 607.429 131.25C608.709 131.95 609.749 133.02 610.549 134.46C611.369 135.88 611.779 137.68 611.779 139.86V162H603.439ZM584.059 162V138.54C584.059 137.42 583.979 136.23 583.819 134.97C583.679 133.71 583.439 132.38 583.099 130.98H590.059C591.019 132.06 591.659 133.13 591.979 134.19C592.299 135.25 592.459 136.38 592.459 137.58V162H584.059ZM633.326 162.78C630.546 162.78 627.926 162.22 625.466 161.1C623.026 159.98 621.046 158.22 619.526 155.82C618.006 153.42 617.246 150.3 617.246 146.46C617.246 142.84 618.006 139.83 619.526 137.43C621.046 135.01 623.026 133.2 625.466 132C627.926 130.8 630.546 130.2 633.326 130.2C634.406 130.2 635.586 130.31 636.866 130.53C638.146 130.73 639.386 131.06 640.586 131.52L638.546 137.1C637.586 136.86 636.636 136.68 635.696 136.56C634.776 136.44 633.986 136.38 633.326 136.38C631.886 136.38 630.626 136.79 629.546 137.61C628.466 138.41 627.626 139.57 627.026 141.09C626.426 142.59 626.126 144.38 626.126 146.46C626.126 148.56 626.426 150.37 627.026 151.89C627.626 153.39 628.466 154.55 629.546 155.37C630.626 156.19 631.886 156.6 633.326 156.6C634.166 156.6 635.066 156.49 636.026 156.27C636.986 156.03 638.106 155.66 639.386 155.16L641.426 160.68C639.866 161.4 638.396 161.93 637.016 162.27C635.636 162.61 634.406 162.78 633.326 162.78ZM659.888 162.78C657.148 162.78 654.778 162.3 652.778 161.34C650.778 160.36 649.128 159.06 647.828 157.44C646.548 155.8 645.598 153.99 644.978 152.01C644.358 150.01 644.048 148 644.048 145.98C644.048 142.68 644.748 139.85 646.148 137.49C647.568 135.13 649.468 133.33 651.848 132.09C654.228 130.83 656.868 130.2 659.768 130.2C661.988 130.2 663.998 130.64 665.798 131.52C667.618 132.38 669.098 133.6 670.238 135.18C671.398 136.76 672.098 138.63 672.338 140.79C672.598 142.95 672.288 145.32 671.408 147.9H654.608C655.028 146.52 655.658 145.36 656.498 144.42C657.338 143.46 658.268 142.98 659.288 142.98H664.628C664.788 141.76 664.678 140.62 664.298 139.56C663.918 138.5 663.298 137.65 662.438 137.01C661.598 136.35 660.568 136.02 659.348 136.02C658.248 136.02 657.158 136.35 656.078 137.01C654.998 137.67 654.098 138.71 653.378 140.13C652.678 141.55 652.328 143.4 652.328 145.68C652.328 147.98 652.678 149.95 653.378 151.59C654.098 153.21 655.088 154.45 656.348 155.31C657.628 156.17 659.108 156.6 660.788 156.6C662.168 156.6 663.538 156.43 664.898 156.09C666.258 155.73 667.808 155.16 669.548 154.38L671.648 159.96C669.488 160.98 667.448 161.7 665.528 162.12C663.628 162.56 661.748 162.78 659.888 162.78Z" fill="white"/>
</svg>
