<?xml version="1.0" standalone="no"?>
<!DOCTYPE svg PUBLIC "-//W3C//DTD SVG 20010904//EN"
 "http://www.w3.org/TR/2001/REC-SVG-20010904/DTD/svg10.dtd">
<svg version="1.0" xmlns="http://www.w3.org/2000/svg"
 width="1920.000000pt" height="278.000000pt" viewBox="0 0 1920.000000 278.000000"
 preserveAspectRatio="xMidYMid meet">

<g transform="translate(0.000000,278.000000) scale(0.100000,-0.100000)"
fill="#000000" stroke="none">
<path d="M0 1390 l0 -1390 4796 0 4796 0 -28 38 c-299 400 -708 832 -1087
1151 -422 355 -956 683 -1459 895 -854 361 -1832 558 -3168 641 -669 41 -1374
55 -2782 55 l-1068 0 0 -1390z"/>
<path d="M16870 2773 c-1877 -45 -3144 -222 -4230 -591 -1207 -411 -2169
-1081 -2940 -2047 -55 -69 -100 -128 -100 -130 0 -3 2160 -5 4800 -5 l4800 0
0 1390 0 1390 -1112 -2 c-612 -1 -1160 -3 -1218 -5z"/>
</g>
</svg>
