<svg width="218" height="49" viewBox="0 0 218 49" fill="none" xmlns="http://www.w3.org/2000/svg">
<path d="M194.066 3.59996C193.282 5.55427 193.211 6.53142 193.781 7.28308C194.35 7.95957 194.066 8.78639 192.712 10.5152C191.216 12.4695 191.073 12.8453 192.071 13.2212C193.567 13.8225 197.485 10.2897 199.053 7.05758C200.62 3.75029 200.549 3.59996 197.699 2.17182L195.134 0.894001L194.066 3.59996Z" fill="black"/>
<path d="M50.6536 4.87783C47.4477 6.08049 45.5242 8.93678 45.0967 13.1461C44.5268 18.3325 45.9516 21.4894 51.7223 27.9537C56.4243 33.2904 56.9943 34.2676 56.9943 36.8984C56.9943 40.807 54.9995 42.2351 52.2922 40.356C51.0099 39.5292 50.5824 38.552 50.5824 36.5977C50.5824 34.0421 50.5112 33.9669 47.7327 33.9669H44.883V37.2742C44.883 44.2646 50.7961 48.7745 57.1367 46.5947C60.7701 45.3921 62.7649 42.6861 63.1924 38.2514C63.7623 33.1401 62.3375 30.0583 56.5668 23.3686C51.8648 17.9566 51.2948 16.9795 51.2948 14.3487C51.2948 11.8682 51.5798 11.2669 53.1471 10.5153C54.7857 9.68843 55.2132 9.7636 56.3531 11.3421C57.1367 12.3192 57.7067 13.8977 57.7067 14.8749C57.7067 16.4533 57.9917 16.6788 60.5564 16.6788C63.2636 16.6788 63.4061 16.5285 63.4061 14.4239C63.4061 11.1917 61.6963 7.20797 59.7015 5.93015C57.2792 4.27651 53.4321 3.82552 50.6536 4.87783Z" fill="black"/>
<path d="M169.843 4.65223C168.703 5.02806 166.922 6.23071 165.924 7.35819C164.215 9.3125 164.215 9.3125 164.215 25.6986C164.215 42.0847 164.215 42.0847 165.924 44.039C168.418 46.8201 172.479 47.8725 176.183 46.5946C180.387 45.1665 181.954 42.5357 182.239 36.2218L182.524 30.9602H179.603H176.682V34.2675C176.682 36.0715 176.468 38.1761 176.255 38.7774C175.542 40.7317 173.334 41.6337 171.695 40.7317C170.341 39.9801 170.27 39.1532 170.27 25.6986C170.27 12.3943 170.341 11.4171 171.624 10.6655C174.474 9.087 176.682 11.5675 176.682 16.2277C176.682 18.8585 176.753 18.9337 179.532 18.9337H182.381V15.5512C182.381 11.2668 180.885 7.35819 178.677 5.93005C176.468 4.35157 172.55 3.82541 169.843 4.65223Z" fill="black"/>
<path d="M6.05564 6.30602C5.69942 7.95966 0 45.768 0 46.4445C0 46.5948 1.28237 46.7451 2.84971 46.7451H5.62818L6.12688 42.9868L6.62558 39.1534L10.6152 39.3789C14.2486 39.6044 14.6048 39.7547 14.8185 41.4835C15.3172 46.5196 15.5309 46.7451 18.8081 46.7451H21.8715L21.3016 43.1372C21.0166 41.1829 19.5205 31.712 18.0957 22.0908L15.4597 4.65238H10.9714C6.83931 4.65238 6.41185 4.80271 6.05564 6.30602ZM12.1825 23.2183C12.8949 28.104 13.4649 32.3133 13.5361 32.614C13.5361 32.9898 12.2538 33.2153 10.6864 33.2153C8.90535 33.2153 7.83671 32.8395 7.83671 32.2382C7.83671 30.1335 10.259 13.7474 10.5439 14.0481C10.7577 14.2736 11.4701 18.4077 12.1825 23.2183Z" fill="black"/>
<path d="M24.935 25.6987V46.7451H33.4841H42.0333V43.7385V40.7319H36.3338H30.6344V34.7186V28.7805L35.1227 28.555L39.5398 28.3295L39.7535 25.5484L39.9672 22.7673L35.4789 22.5418L30.9906 22.3163L30.7769 16.4534L30.5632 10.6656H36.3338H42.0333V7.659V4.65238H33.4841H24.935V25.6987Z" fill="black"/>
<path d="M65.5434 7.659V10.6656H68.7494H71.9553V28.7054V46.7451H75.1612H78.3672V28.7054V10.6656H81.5731H84.779V7.659V4.65238H75.1612H65.5434V7.659Z" fill="black"/>
<path d="M87.6287 25.6987V46.7451H90.8346H94.0406V37.7252V28.7054H97.6027H101.165V37.7252V46.7451H104.371H107.577V25.6987V4.65238H104.371H101.165V13.6722V22.6921H97.6027H94.0406V13.6722V4.65238H90.8346H87.6287V25.6987Z" fill="black"/>
<path d="M111.851 25.6987V46.7451H120.4H128.949V43.7385V40.7319H123.606H118.263V34.7186V28.7054H122.538H126.812V25.6987V22.6921H122.538H118.263V16.6789V10.6656H123.606H128.949V7.659V4.65238H120.4H111.851V25.6987Z" fill="black"/>
<path d="M131.087 7.659V10.6656H134.293H137.499V28.7054V46.7451H140.704H143.91V28.7054V10.6656H147.116H150.322V7.659V4.65238H140.704H131.087V7.659Z" fill="black"/>
<path d="M153.172 25.6987V46.7451H156.378H159.584V25.6987V4.65238H156.378H153.172V25.6987Z" fill="black"/>
<path d="M205.535 8.41057C202.258 9.76355 198.767 15.9271 198.767 20.1364C198.767 21.2639 199.765 25.1725 200.976 28.9308C203.327 36.0715 203.398 39.905 201.332 42.0848C198.696 44.8659 194.778 40.6566 196.559 37.1238C197.77 34.7937 197.556 34.3427 194.849 32.9897L192.355 31.7119L191.287 34.4179C188.223 42.1599 192.355 49 200.05 49C203.541 49 206.319 46.8202 208.1 42.6861C209.952 38.3265 209.81 35.0192 207.245 27.8033C204.324 19.4599 205.037 14.4238 209.098 14.4238C211.662 14.4238 212.731 16.3781 211.734 19.1593C210.736 21.8652 210.594 21.5646 213.871 22.9927L216.436 24.1953L217.219 21.7901C219.214 15.7768 217.362 11.1165 211.947 8.71124C209.24 7.50858 207.673 7.43342 205.535 8.41057Z" fill="black"/>
</svg>
