<svg width="32" height="33" viewBox="0 0 32 33" fill="none" xmlns="http://www.w3.org/2000/svg">
<g clip-path="url(#clip0_2_167)">
<path d="M11.648 0.175583C9.74719 0.398129 8.67839 0.673038 7.32799 1.3014C5.91359 1.95595 4.79359 2.75449 3.67359 3.8934C2.55999 5.03886 1.77919 6.18431 1.13919 7.63086C0.383991 9.33922 0.0447911 10.9625 0.0383911 12.9C0.0383911 14.8898 0.364791 16.4803 1.15199 18.2672C1.77279 19.681 2.52159 20.7807 3.64799 21.9392C5.67039 24.0141 8.17919 25.2774 11.008 25.6309C13.8048 25.9778 16.7104 25.3232 19.0976 23.7981C19.3536 23.6345 19.5904 23.5036 19.6224 23.5036C19.6544 23.5036 19.7184 23.6279 19.7632 23.7785C19.8144 23.9356 19.9296 24.1909 20.032 24.3545C20.1344 24.5181 21.9264 26.3901 24.0128 28.5174C28.1472 32.7327 28.064 32.6607 28.9472 32.8178C30.6624 33.1123 32.2368 31.5087 31.9488 29.7479C31.8016 28.8512 31.8656 28.9232 27.744 24.6949C25.6704 22.561 23.84 20.7283 23.68 20.6236C23.52 20.5254 23.2704 20.401 23.1232 20.3552C22.9696 20.3094 22.848 20.2439 22.848 20.2112C22.848 20.1719 22.976 19.9363 23.1296 19.681C25.8816 15.1254 25.6192 9.48977 22.4384 5.14359C21.9584 4.48249 20.7296 3.23231 20.0704 2.72831C18.4192 1.46504 16.4288 0.614132 14.4 0.29995C13.7408 0.195221 12.0896 0.123222 11.648 0.175583ZM13.7792 3.48104C18.2208 4.16177 21.4912 7.72904 21.8176 12.2454C22.0928 15.9698 20.1792 19.5436 16.96 21.3305C13.9648 22.9996 10.2016 22.8294 7.35999 20.8985C5.12639 19.3799 3.67999 17.017 3.27039 14.2287C3.17439 13.5741 3.18719 12.193 3.29599 11.5123C3.66719 9.18213 4.72319 7.21849 6.38719 5.73922C7.76319 4.52177 9.22879 3.83449 11.232 3.48104C11.6992 3.39595 13.2416 3.39595 13.7792 3.48104Z" fill="white"/>
<path d="M10.1056 6.73408C10.0672 6.83226 9.9392 7.17917 9.824 7.51299L9.6064 8.11517L9.8432 8.19372C9.9712 8.23299 10.1056 8.2919 10.1312 8.31808C10.1632 8.34426 9.984 8.6519 9.7344 8.99881C9.344 9.53554 9.2928 9.63372 9.3888 9.67299C9.4528 9.69263 9.6 9.75154 9.7088 9.79736L9.9136 9.88245L10.5536 9.18863C11.168 8.52099 11.2 8.47517 11.4176 7.84681C11.6864 7.09408 11.68 7.10063 11.5392 7.05481C11.4752 7.04172 11.1424 6.91736 10.7968 6.78645L10.1696 6.55736L10.1056 6.73408Z" fill="white"/>
<path d="M13.344 8.08248C12.6336 8.31157 12.1216 8.90721 11.7376 9.95448C11.5776 10.3865 11.5584 10.537 11.5584 11.1654C11.5584 12.0359 11.6416 12.3043 12.32 13.7312C12.9088 14.9748 13.0176 15.3283 12.9792 15.937C12.928 16.7421 12.5824 17.2199 12.0512 17.2199C11.6992 17.2199 11.424 17.0759 11.264 16.8076C11.0912 16.5261 11.104 16.3887 11.3344 15.7014C11.4432 15.3807 11.5136 15.0992 11.5008 15.0796C11.4368 15.0207 10.0928 14.5363 10.0608 14.5625C10.048 14.5821 9.93918 14.8832 9.81758 15.2367C9.64478 15.7538 9.59998 15.9763 9.59998 16.4018C9.59998 17.0432 9.67038 17.3116 9.93918 17.7239C10.5024 18.5748 12.0384 19.0919 13.0176 18.7516C13.4656 18.5945 13.952 18.1036 14.2592 17.5014C14.6304 16.7683 14.7392 16.2708 14.7008 15.5508C14.656 14.8243 14.5088 14.353 13.9776 13.2796C13.3952 12.0948 13.2288 11.545 13.2608 10.969C13.2928 10.465 13.5232 9.90866 13.7728 9.73194C13.952 9.60103 14.3488 9.59448 14.592 9.72539C15.0464 9.96757 15.1424 10.3538 14.912 11.0345C14.8416 11.2439 14.784 11.4338 14.784 11.4599C14.784 11.4861 14.88 11.5319 14.9952 11.5712C15.104 11.6105 15.4368 11.7283 15.7248 11.8396L16.256 12.0359L16.4224 11.5058C16.672 10.7203 16.6784 9.93484 16.4288 9.41775C16.2176 8.97921 15.8848 8.65194 15.36 8.38357C14.6688 8.02357 13.8816 7.90575 13.344 8.08248Z" fill="white"/>
</g>
<defs>
<clipPath id="clip0_2_167">
<rect width="32" height="32.7273" fill="white" transform="translate(0 0.136353)"/>
</clipPath>
</defs>
</svg>
