<svg width="14" height="15" viewBox="0 0 14 15" fill="none" xmlns="http://www.w3.org/2000/svg">
<path d="M12.8532 12.7657C13.0293 12.9511 13.1283 13.2025 13.1283 13.4647C13.1283 13.7269 13.0293 13.9783 12.8532 14.1637C12.6771 14.3491 12.4382 14.4533 12.1891 14.4533C11.9401 14.4533 11.7012 14.3491 11.5251 14.1637L6.56491 8.94087L1.60319 14.1621C1.42707 14.3475 1.1882 14.4516 0.939126 14.4516C0.690054 14.4516 0.451184 14.3475 0.275064 14.1621C0.0989435 13.9767 3.71146e-09 13.7253 0 13.4631C-3.71146e-09 13.2009 0.0989435 12.9494 0.275064 12.7641L5.23678 7.54284L0.276626 2.31998C0.100506 2.13459 0.00156253 1.88315 0.00156254 1.62097C0.00156254 1.35879 0.100506 1.10734 0.276626 0.921955C0.452746 0.736565 0.691617 0.632414 0.940688 0.632414C1.18976 0.632414 1.42863 0.736565 1.60475 0.921955L6.56491 6.14482L11.5266 0.921132C11.7027 0.735743 11.9416 0.631592 12.1907 0.631592C12.4398 0.631592 12.6786 0.735743 12.8547 0.921132C13.0309 1.10652 13.1298 1.35796 13.1298 1.62015C13.1298 1.88233 13.0309 2.13377 12.8547 2.31916L7.89303 7.54284L12.8532 12.7657Z" fill="white"/>
</svg>
