<?xml version="1.0" standalone="no"?>
<!DOCTYPE svg PUBLIC "-//W3C//DTD SVG 20010904//EN"
 "http://www.w3.org/TR/2001/REC-SVG-20010904/DTD/svg10.dtd">
<svg version="1.0" xmlns="http://www.w3.org/2000/svg"
 width="500.000000pt" height="500.000000pt" viewBox="0 0 500.000000 500.000000"
 preserveAspectRatio="xMidYMid meet">

<g transform="translate(0.000000,500.000000) scale(0.100000,-0.100000)"
fill="#000000" stroke="none">
<path d="M2045 4944 c-91 -20 -204 -64 -285 -111 -94 -55 -237 -200 -282 -288
-61 -119 -70 -156 -77 -325 l-6 -155 -355 -6 c-195 -3 -363 -9 -373 -14 -10
-4 -22 -15 -27 -25 -13 -24 -158 -1313 -215 -1905 -8 -88 -42 -419 -75 -735
-51 -492 -103 -1018 -126 -1262 -3 -36 -3 -76 1 -87 l6 -21 2305 0 2305 0 -6
62 c-3 35 -35 443 -71 908 -35 465 -73 955 -84 1090 -46 558 -111 1363 -130
1620 -12 151 -26 289 -31 307 -7 22 -20 35 -42 43 -21 7 -162 14 -404 17
l-373 6 -1 26 c0 14 -4 89 -8 166 -7 114 -13 152 -34 203 -39 97 -86 169 -162
247 -89 91 -195 157 -338 207 -111 41 -113 41 -257 41 -115 0 -164 -5 -239
-23 -100 -24 -133 -23 -256 4 -110 24 -277 29 -360 10z m264 -150 l31 -7 -62
-66 c-160 -169 -208 -290 -208 -523 l0 -138 -250 0 -250 0 0 115 c0 199 36
300 148 413 83 84 142 123 244 162 110 43 259 61 347 44z m755 -24 c121 -31
209 -82 302 -175 124 -124 147 -185 158 -417 l5 -118 -244 0 c-189 0 -245 3
-245 13 0 67 -23 285 -35 332 -28 110 -79 198 -171 294 -84 88 -85 90 -57 94
53 10 211 -3 287 -23z m-433 -109 c103 -78 182 -195 214 -318 9 -34 15 -102
15 -170 l0 -113 -310 0 -310 0 0 108 c0 196 27 287 112 386 59 68 168 156 193
156 12 0 51 -22 86 -49z m912 -777 l45 -6 6 -52 c13 -111 206 -2589 256 -3281
11 -154 22 -307 26 -339 l6 -59 -1736 5 c-955 3 -1739 8 -1742 11 -7 6 18 259
116 1207 32 316 71 688 85 825 14 138 41 405 60 595 61 596 95 963 95 1017 0
28 3 58 6 67 6 14 135 16 1369 16 749 0 1383 -3 1408 -6z"/>
<path d="M1476 3137 c-46 -95 -93 -191 -104 -214 l-21 -41 87 -37 c48 -21 89
-39 91 -41 2 -1 -63 -76 -144 -166 -81 -90 -151 -171 -156 -180 -8 -15 3 -23
68 -53 43 -20 86 -37 95 -38 10 -1 112 78 229 177 l212 180 83 171 c46 93 86
184 90 201 5 28 3 32 -33 46 -21 9 -116 50 -212 92 -96 42 -181 76 -188 76 -9
0 -48 -71 -97 -173z"/>
<path d="M2599 2902 c-83 -22 -153 -67 -226 -146 -100 -107 -158 -224 -189
-375 -28 -144 -7 -271 88 -516 152 -395 165 -478 102 -615 -53 -114 -98 -150
-185 -150 -73 0 -130 30 -169 88 -41 60 -38 85 28 233 28 63 48 117 44 121 -9
9 -282 128 -294 128 -11 0 -93 -165 -119 -241 -17 -50 -22 -89 -23 -179 -1
-106 1 -120 26 -173 101 -214 455 -369 685 -299 178 55 336 244 399 480 37
142 12 316 -82 557 -127 329 -128 330 -128 450 0 99 2 116 26 167 68 143 163
187 279 128 20 -11 49 -34 64 -52 24 -28 27 -38 23 -88 -3 -30 -19 -90 -36
-133 -37 -91 -37 -93 -14 -100 9 -3 74 -31 144 -61 71 -31 132 -56 137 -56 10
0 63 112 89 190 40 117 37 263 -9 358 -32 64 -132 162 -214 208 -141 78 -323
109 -446 76z"/>
</g>
</svg>
