<svg width="23" height="24" viewBox="0 0 23 24" fill="none" xmlns="http://www.w3.org/2000/svg">
<g clip-path="url(#clip0_2_155)">
<path d="M16.0361 0.955864C15.761 1.11156 15.5738 1.30081 15.4093 1.59121C15.0958 2.14479 15.113 2.81133 15.4629 3.34096L15.5642 3.49739L10.9125 11.7068L6.26527 19.9189L6.08174 19.9076C5.46046 19.8626 4.88221 20.1816 4.56967 20.7388C4.11137 21.5429 4.37094 22.5306 5.16218 22.9934C5.7719 23.3523 6.51733 23.2829 7.04461 22.8128C7.65187 22.2748 7.77364 21.321 7.32342 20.6385L7.22211 20.4821L11.8738 12.2727L16.521 4.06064L16.7045 4.07187C17.5093 4.12817 18.2404 3.56023 18.4052 2.75577C18.5495 2.04512 18.2427 1.35029 17.6232 0.982566C17.1238 0.685573 16.5304 0.675081 16.0361 0.955864ZM16.9382 1.88313C17.1177 1.92229 17.2942 2.09271 17.3412 2.27164C17.4127 2.54362 17.2225 2.8794 16.9523 2.95324C16.7908 2.99735 16.5365 2.91723 16.4189 2.78444C16.2213 2.56226 16.2277 2.25749 16.4365 2.03552C16.5777 1.88572 16.7312 1.83995 16.9382 1.88313ZM6.095 21.0317C6.27458 21.0708 6.45104 21.2412 6.49806 21.4202C6.56954 21.6922 6.3794 22.0279 6.10913 22.1018C5.94767 22.1459 5.69338 22.0658 5.57571 21.933C5.37813 21.7108 5.38456 21.406 5.59333 21.1841C5.73453 21.0343 5.88803 20.9885 6.095 21.0317Z" fill="black"/>
</g>
<defs>
<clipPath id="clip0_2_155">
<rect width="18.6295" height="18.945" fill="white" transform="matrix(0.964649 -0.263537 0.254174 0.967159 0 5.2832)"/>
</clipPath>
</defs>
</svg>
