<svg width="55" height="21" viewBox="0 0 55 21" fill="none" xmlns="http://www.w3.org/2000/svg">
<g clip-path="url(#clip0_2_139)">
<path d="M12.0313 19.7454C12.0313 19.3532 9.96875 17.1572 7.4336 14.8436L2.79297 10.6084L7.43359 6.37326C11.9453 2.25574 12.5039 1.51066 11.5586 0.961662C10.957 0.647946 0.859377 9.7457 0.859377 10.6084C0.859377 11.3143 10.6992 20.412 11.4727 20.412C11.7734 20.412 12.0313 20.0983 12.0313 19.7454Z" fill="black"/>
<path d="M54.0977 12.726C55.2578 11.3927 55.2578 10.2163 54.0977 8.88296C52.1641 6.64774 47.6953 8.33396 48.2969 11.1182C48.8555 13.7456 52.3789 14.7259 54.0977 12.726ZM50.2305 11.5495C49.5 10.726 50.2305 9.62804 51.5625 9.62804C52.8945 9.62804 53.625 10.726 52.8945 11.5495C52.5508 11.9025 51.9922 12.177 51.5625 12.177C51.1328 12.177 50.5742 11.9025 50.2305 11.5495Z" fill="black"/>
<path d="M42.0234 12.8436C44.5586 10.4123 41.5508 6.88303 38.0273 8.09868C37.6836 8.25554 37.0391 8.88297 36.6953 9.5104C34.9766 12.5299 39.4883 15.3141 42.0234 12.8436ZM38.2852 11.4319C37.6836 10.4123 38.6289 9.31433 39.9609 9.5104C41.0352 9.62804 41.5078 10.5692 41.0781 11.628C40.7344 12.4123 38.8008 12.2946 38.2852 11.4319Z" fill="black"/>
<path d="M30.0352 13.0789C30.5078 12.6868 31.0664 11.824 31.1953 11.1182C31.7969 8.33396 27.3281 6.64774 25.3945 8.88296C24.8789 9.47118 24.4922 10.3339 24.4922 10.8045C24.4922 11.275 24.8789 12.1378 25.3945 12.726C26.4688 13.9416 28.6602 14.0985 30.0352 13.0789ZM26.5977 11.5495C25.8672 10.726 26.5977 9.62804 27.9297 9.62804C29.2617 9.62804 29.9922 10.726 29.2617 11.5495C28.918 11.9025 28.3594 12.177 27.9297 12.177C27.5 12.177 26.9414 11.9025 26.5977 11.5495Z" fill="black"/>
<path d="M18.4336 12.7259C21.1406 9.58879 16.543 6.05949 13.4492 8.88293C12.5899 9.66722 12.418 10.0986 12.6328 11.1182C13.1914 13.7455 16.7149 14.7259 18.4336 12.7259ZM14.5664 11.5495C13.8359 10.726 14.5664 9.62801 15.8984 9.62801C17.2305 9.62801 17.9609 10.726 17.2305 11.5495C16.8867 11.9024 16.3281 12.1769 15.8984 12.1769C15.4688 12.1769 14.9102 11.9024 14.5664 11.5495Z" fill="black"/>
</g>
<defs>
<clipPath id="clip0_2_139">
<rect width="55" height="20.3915" fill="white" transform="translate(55 20.8042) rotate(180)"/>
</clipPath>
</defs>
</svg>
