<svg width="55" height="21" viewBox="0 0 55 21" fill="none" xmlns="http://www.w3.org/2000/svg">
<g clip-path="url(#clip0_2_146)">
<path d="M42.9688 1.45188C42.9688 1.84402 45.0312 4.04003 47.5664 6.35368L52.207 10.5888L47.5664 14.824C43.0547 18.9415 42.4961 19.6866 43.4414 20.2356C44.043 20.5493 54.1406 11.4516 54.1406 10.5888C54.1406 9.88299 44.3008 0.785231 43.5273 0.785231C43.2266 0.785231 42.9688 1.09895 42.9688 1.45188Z" fill="black"/>
<path d="M0.902344 8.47129C-0.257812 9.80458 -0.257812 10.981 0.902344 12.3143C2.83594 14.5495 7.30469 12.8633 6.70312 10.0791C6.14453 7.45171 2.62109 6.47135 0.902344 8.47129ZM4.76953 9.64772C5.5 10.4712 4.76953 11.5692 3.4375 11.5692C2.10547 11.5692 1.375 10.4712 2.10547 9.64772C2.44922 9.29479 3.00781 9.02029 3.4375 9.02029C3.86719 9.02029 4.42578 9.29479 4.76953 9.64772Z" fill="black"/>
<path d="M12.9766 8.35364C10.4414 10.7849 13.4492 14.3142 16.9727 13.0986C17.3164 12.9417 17.9609 12.3143 18.3047 11.6869C20.0234 8.66736 15.5117 5.88313 12.9766 8.35364ZM16.7148 9.76536C17.3164 10.7849 16.3711 11.8829 15.0391 11.6869C13.9648 11.5692 13.4922 10.6281 13.9219 9.56929C14.2656 8.785 16.1992 8.90264 16.7148 9.76536Z" fill="black"/>
<path d="M24.9648 8.11836C24.4922 8.5105 23.9336 9.37322 23.8047 10.0791C23.2031 12.8633 27.6719 14.5495 29.6055 12.3143C30.1211 11.7261 30.5078 10.8634 30.5078 10.3928C30.5078 9.92222 30.1211 9.0595 29.6055 8.47129C28.5312 7.25564 26.3398 7.09878 24.9648 8.11836ZM28.4023 9.64772C29.1328 10.4712 28.4023 11.5692 27.0703 11.5692C25.7383 11.5692 25.0078 10.4712 25.7383 9.64772C26.082 9.29479 26.6406 9.02029 27.0703 9.02029C27.5 9.02029 28.0586 9.29479 28.4023 9.64772Z" fill="black"/>
<path d="M36.5664 8.47132C33.8594 11.6085 38.457 15.1378 41.5508 12.3143C42.4101 11.53 42.582 11.0987 42.3672 10.0791C41.8086 7.45174 38.2851 6.47138 36.5664 8.47132ZM40.4336 9.64775C41.1641 10.4713 40.4336 11.5693 39.1016 11.5693C37.7695 11.5693 37.0391 10.4713 37.7695 9.64775C38.1133 9.29482 38.6719 9.02032 39.1016 9.02032C39.5312 9.02032 40.0898 9.29482 40.4336 9.64775Z" fill="black"/>
</g>
<defs>
<clipPath id="clip0_2_146">
<rect width="55" height="20.3915" fill="white" transform="translate(0 0.393066)"/>
</clipPath>
</defs>
</svg>
