<svg width="845" height="197" viewBox="0 0 845 197" fill="none" xmlns="http://www.w3.org/2000/svg">
<path d="M752.227 11.0756C749.189 19.0746 748.913 23.0741 751.122 26.1507C753.331 28.9196 752.227 32.3038 746.98 39.3799C741.181 47.379 740.629 48.9172 744.495 50.4555C750.294 52.9168 765.482 38.4569 771.557 25.2277C777.632 11.6909 777.356 11.0756 766.31 5.23011L756.369 -4.19617e-05L752.227 11.0756Z" fill="white"/>
<path d="M196.341 16.3054C183.914 21.2279 176.458 32.9188 174.801 50.1475C172.592 71.3758 178.115 84.2973 200.483 110.756C218.709 132.599 220.918 136.599 220.918 147.367C220.918 163.365 213.186 169.21 202.692 161.519C197.722 158.135 196.065 154.135 196.065 146.136C196.065 135.676 195.789 135.368 185.019 135.368H173.973V148.905C173.973 177.517 196.893 195.976 221.47 187.054C235.554 182.132 243.286 171.056 244.943 152.905C247.152 131.984 241.629 119.37 219.261 91.9887C201.035 69.8375 198.826 65.838 198.826 55.07C198.826 44.9174 199.931 42.4561 206.006 39.3796C212.358 35.9954 214.014 36.303 218.433 42.7638C221.47 46.7633 223.68 53.2241 223.68 57.2236C223.68 63.6844 224.784 64.6074 234.725 64.6074C245.219 64.6074 245.771 63.992 245.771 55.3777C245.771 42.1485 239.144 25.8427 231.412 20.6126C222.023 13.8441 207.111 11.9982 196.341 16.3054Z" fill="white"/>
<path d="M658.336 15.3823C653.917 16.9206 647.014 21.8431 643.148 26.4579C636.52 34.457 636.52 34.457 636.52 101.526C636.52 168.595 636.52 168.595 643.148 176.594C652.813 187.977 668.553 192.284 682.913 187.054C699.206 181.209 705.281 170.441 706.385 144.598L707.49 123.062H696.168H684.846V136.599C684.846 143.982 684.017 152.597 683.189 155.058C680.427 163.057 671.867 166.749 665.516 163.057C660.269 159.981 659.993 156.596 659.993 101.526C659.993 47.0709 660.269 43.0713 665.239 39.9948C676.285 33.534 684.846 43.6866 684.846 62.7613C684.846 73.5293 685.122 73.8369 695.892 73.8369H706.938V59.9924C706.938 42.456 701.139 26.4579 692.578 20.6125C684.017 14.1517 668.829 11.9981 658.336 15.3823Z" fill="white"/>
<path d="M23.4725 22.1513C22.0918 28.9198 0 183.671 0 186.44C0 187.055 4.97066 187.67 11.0459 187.67H21.8157L23.7487 172.287L25.6817 156.597L41.146 157.52C55.2295 158.443 56.6103 159.058 57.4387 166.134C59.3717 186.747 60.2002 187.67 72.903 187.67H84.7773L82.5681 172.903C81.4635 164.904 75.6644 126.139 70.1415 86.759L59.924 15.3829H42.5267C26.5102 15.3829 24.8533 15.9982 23.4725 22.1513ZM47.2212 91.3739C49.9827 111.372 52.1919 128.6 52.468 129.831C52.468 131.369 47.4974 132.292 41.4221 132.292C34.5184 132.292 30.3762 130.754 30.3762 128.293C30.3762 119.678 39.7653 52.6093 40.8698 53.8399C41.6983 54.7628 44.4598 71.6839 47.2212 91.3739Z" fill="white"/>
<path d="M96.6514 101.527V187.67H129.789H162.927V175.364V163.058H140.835H118.743V138.445V114.14L136.14 113.217L153.262 112.294L154.09 100.911L154.919 89.528L137.521 88.605L120.124 87.682L119.295 63.6849L118.467 39.9954H140.835H162.927V27.6891V15.3829H129.789H96.6514V101.527Z" fill="white"/>
<path d="M254.056 27.6891V39.9954H266.483H278.909V113.833V187.67H291.336H303.763V113.833V39.9954H316.189H328.616V27.6891V15.3829H291.336H254.056V27.6891Z" fill="white"/>
<path d="M339.662 101.527V187.67H352.088H364.515V150.751V113.833H378.322H392.13V150.751V187.67H404.556H416.983V101.527V15.3829H404.556H392.13V52.3016V89.2203H378.322H364.515V52.3016V15.3829H352.088H339.662V101.527Z" fill="white"/>
<path d="M433.551 101.527V187.67H466.689H499.827V175.364V163.058H479.115H458.404V138.445V113.833H474.973H491.542V101.527V89.2203H474.973H458.404V64.6078V39.9954H479.115H499.827V27.6891V15.3829H466.689H433.551V101.527Z" fill="white"/>
<path d="M508.111 27.6891V39.9954H520.538H532.964V113.833V187.67H545.391H557.818V113.833V39.9954H570.244H582.671V27.6891V15.3829H545.391H508.111V27.6891Z" fill="white"/>
<path d="M593.717 101.527V187.67H606.143H618.57V101.527V15.3829H606.143H593.717V101.527Z" fill="white"/>
<path d="M796.685 30.7652C783.983 36.3031 770.451 61.5308 770.451 78.7596C770.451 83.3744 774.318 99.3725 779.012 114.755C788.125 143.983 788.401 159.673 780.393 168.595C770.175 179.978 754.987 162.75 761.891 148.29C766.585 138.752 765.757 136.907 755.263 131.369L745.598 126.139L741.456 137.214C729.582 168.903 745.598 196.899 775.422 196.899C788.953 196.899 799.723 187.977 806.627 171.056C813.807 153.212 813.254 139.675 803.313 110.14C791.991 75.9907 794.752 55.3777 810.493 55.3777C820.434 55.3777 824.576 63.3768 820.71 74.76C816.844 85.8356 816.292 84.605 828.995 90.4505L838.936 95.373L841.974 85.528C849.706 60.9155 842.526 41.8409 821.539 31.9959C811.045 27.0734 804.97 26.7657 796.685 30.7652Z" fill="white"/>
</svg>
