<svg version="1.2" xmlns="http://www.w3.org/2000/svg" viewBox="0 0 484 227" width="484" height="227">
	<title>logo</title>
	<style>
		.s0 { fill: #000000 } 
	</style>
	<g>
		<path class="s0" d="m56 3.5c-26.5 6.2-40.4 10.9-41.7 14-0.3 0.8-0.9 1.3-1.3 1-0.4-0.3-1.8 1.9-3 4.7-2.2 5.2-2.7 9.7-4.6 39.9-0.6 9.1-0.3 12.1 1.6 20.9 3.5 15.2 8.3 21.1 23 28.5 3 1.5 6.8 3.8 8.3 5.1 2.5 2.1 3.8 2.4 11.9 2.4 8.4 0 10.4-0.4 25.4-5.5 20.6-6.9 28.1-10.3 32.2-14.6 2.7-2.9 7.4-10.3 7.1-11.1-0.1-0.2 0.4-2.3 1.1-4.6 1.8-6.9 1.7-27.2-0.2-27.2-0.4 0-0.5-0.7-0.2-1.5 0.4-0.8 0.1-1.5-0.7-1.5-0.7 0-0.9-0.3-0.6-0.6 0.6-0.6-4-5.3-5.3-5.5-0.3 0-1.4-0.3-2.5-0.7-3-0.9-20.2-0.8-27 0.1-10.3 1.5-15.3 4.4-17.3 10.4-1.4 4.2-0.4 12.4 1.6 13.1 0.7 0.2 1 0.7 0.8 1.1-0.3 0.4 1.3 1.8 3.5 3.1 2.1 1.4 3.9 3.2 3.9 4.2 0 2.9-4.8 5.8-9.7 5.8-10.4 0-13.2-4.8-14-24-0.6-13.7 0.3-18.6 4-22 3.4-3.2 9.3-2.6 17.8 1.7 8.7 4.4 15.8 4.9 28.3 1.9 9.1-2.1 13.6-5.5 13.6-10.3 0-4-5.2-12.5-9.9-16.2-5.4-4.3-19.3-10.7-27.2-12.6-7.6-1.8-11.5-1.8-18.9 0z"/>
		<path class="s0" d="m257.9 3.6c-1.3 0.7-2.7 1-3.1 0.8-0.5-0.3-0.8-0.1-0.8 0.4 0 0.4-0.9 1.8-2.1 3-1.1 1.2-1.7 2.7-1.4 3.2 0.3 0.6 0.1 1-0.5 1-0.6 0-0.8 0.4-0.5 1 0.3 0.5 0.2 1-0.4 1-0.5 0-1 0.8-1 1.7 0 1-0.7 5.6-1.6 10.3-2.1 10.9-1.4 28.7 1.5 39.4 1.3 5 2 10.7 2 16.9 0 9.1-0.1 9.4-3 12.2-2.7 2.6-3 3.4-2.4 7 0.3 2.2 0.6 4.6 0.6 5.2 0.1 0.7 0.5 1.3 0.9 1.3 0.4 0 0.6 0.8 0.4 1.9-0.2 1.2 0.5 2.2 2.2 3 2 0.9 2.3 1.4 1.3 2.5-0.9 1.2-0.7 1.3 1.1 0.9 1.8-0.5 2.1-0.3 1.6 1.1-0.6 1.4-0.3 1.6 1.5 1 1.8-0.5 2-0.3 1.4 1.2-0.6 1.5-0.5 1.7 0.5 0.6 1.7-1.6 2.9-1.5 2.9 0.1 0 2.3 19.8 0.7 22.3-1.7 0.7-0.7 1.8-1.1 2.5-0.8 0.6 0.2 1.2-0.1 1.2-0.8 0-0.6 0.5-0.8 1-0.5 0.6 0.3 1-0.1 1-0.9 0-0.9 0.5-1.6 1.2-1.6 0.6 0 0.9-0.3 0.5-0.6-0.3-0.4 0.1-1.3 0.9-2.2 1.2-1.1 1.4-2.8 0.9-7.1-0.3-3.1-0.9-8.5-1.3-12.1-0.8-7.6-0.2-15.2 1.4-15.7 0.6-0.2 2.3 1.9 3.8 4.7 1.5 2.8 4 5.8 5.4 6.8 1.5 0.9 2.9 2 3.2 2.4 0.5 0.6 6.2 2 8.5 2 5 0 7.6-1.4 14.3-7.6l4.2-4v6.7c0 7.6 2.6 20.8 4.4 21.9 0.6 0.4 0.7 0.8 0.3 0.8-1.3 0 2.9 4.1 5.8 5.6 4.2 2.2 22.2 1.9 25.6-0.4 3.1-2 6.3-5.2 5.3-5.2-0.3 0 0-0.7 0.7-1.6 0.9-1.1 1.4-6.1 1.7-16.8 0.3-12.9 0.1-16.3-1.7-23.3-1.8-6.9-2.1-10.9-2-26 0-9.8 0.4-20.1 0.8-22.8 0.8-6-0.5-11.2-3.1-12.1-1-0.3-1.8-1-1.8-1.5 0-0.6-0.4-0.7-1-0.4-0.5 0.3-1 0.2-1-0.3 0-1.2-1.2-1.3-11-1.4-11.9-0.1-12.7 0.1-18.2 5-5.4 4.9-8.7 9.7-17.2 24.9-3.1 5.7-6.1 10.3-6.5 10.3-0.5 0-3.2-2.4-6-5.3-3.5-3.5-6.5-8-9.1-13.7-9-19.2-8.9-19.2-19.2-21-9.4-1.6-16.4-1.8-18.9-0.4z"/>
		<path class="s0" d="m162.8 5.3c-5.3 2.7-8 6.6-10.7 15.7-1.2 3.8-3.9 10.2-6.1 14.3-2.8 5.1-4.6 10.3-6 17.3-2.7 13.1-4.8 21.5-6.7 26.7-6.5 17.8-9.3 26.6-9.3 29.5 0 4.3 4.4 8.7 9.7 9.6 7.1 1.1 18.3 0.7 21.3-0.9 1.7-0.9 3-1.3 3-1.1 0 0.3 2.1-1.6 4.8-4.1 7.7-7.4 8.1-7.6 21.6-8.1l12.3-0.5 6.1 5.6c6.6 6.1 8.6 6.7 23.7 7 8.4 0.2 9.3 0 12.6-3.6 2.2-2.3 2.6-3.6 2.4-7.5-0.4-8.6-7.7-33.2-9.8-33.2-0.6 0-0.8-0.3-0.4-0.6 0.3-0.4 0-1.9-0.8-3.5-0.8-1.5-3.9-9.9-6.9-18.6-2.9-8.7-6.7-18.5-8.4-21.8-1.8-3.3-4-8.1-5.1-10.6-2.6-6.3-7.5-11.7-11.8-12.8-1.9-0.5-9.7-1-17.3-1-12.2 0-14.3 0.3-18.2 2.2zm20.3 47.4c0.6 1.6 2 4.7 3 7.1 1 2.3 1.9 5.4 1.9 6.7 0 2.3-0.4 2.5-4.4 2.5-6.1 0-7.7-1.7-6.5-7.2 2.8-12.5 4-14.3 6-9.1z"/>
		<path class="s0" d="m442 4c-2.5 0.5-13.8 0.8-25.2 0.8-20.2-0.2-20.7-0.2-22.6 2-1 1.2-2.1 1.9-2.4 1.6-0.9-0.8-3 5.5-3 8.8 0.3 15.5 0 33.8-0.6 52.3-0.5 12.1-0.5 23.3-0.1 24.8 0.5 1.6 0.9 6 1 9.8 0.1 3.8 0.6 6.9 1.1 6.9 0.4 0 0.8 0.4 0.8 1 0 1.5 3.3 5 4.2 4.4 0.4-0.3 0.8 0 0.8 0.5 0 0.6 0.3 1 0.8 0.9 0.4-0.1 2.5 0.4 4.7 1.1 5.2 1.8 44.2 2.5 58.4 1.1 10.4-1 17.1-2.7 17.1-4.3 0-0.4 0.5-0.5 1-0.2 0.6 0.3 1-0.1 1-1 0-1 0.5-1.3 1.2-0.9 0.8 0.5 0.9 0.2 0.5-0.9-0.3-1-0.2-1.7 0.3-1.7 1 0 2.5-6.1 2.3-9.5-0.1-4.3-1.2-8.7-2.5-10.3-2.4-3-3.8-4.4-3.8-3.5 0 0.4-0.4 0.2-0.9-0.5-1.2-2-23.6-4-34.1-3.1-9.6 0.8-13.2-0.4-12.3-4 0.8-3 2.6-3.2 14.1-1.5 11.4 1.7 24 1.4 25.3-0.7 0.4-0.6 1.2-0.8 1.8-0.5 0.6 0.4 1.1 0 1.1-0.9 0-0.9 0.5-1.3 1-1 0.6 0.3 1-0.1 1-1 0-1.1 0.5-1.5 1.4-1.2q1.5 0.6 0.9-0.9c-0.3-0.7 0-1.4 0.7-1.4 0.6 0 0.8-0.5 0.5-1-0.3-0.6-0.1-1 0.5-1 0.6 0 0.9-0.4 0.5-0.9-0.3-0.5-0.1-1.2 0.4-1.5 1.8-1.1-0.1-13.6-2.1-13.6-0.6 0-0.8-0.6-0.6-1.3 0.6-1.4-3.7-5.9-4.7-4.9-0.3 0.3-1 0-1.5-0.8-0.8-1.2-4.3-1.5-19.4-1.6-18.7-0.1-21.6-0.6-21.6-4 0-4.4 7-5.5 19-2.9 3.8 0.8 10 1.2 15 1 10.6-0.5 11-0.5 11-2.1 0-0.8 0.6-1.1 1.5-0.8 0.8 0.4 1.5 0.1 1.5-0.6 0-0.6 0.5-0.8 1-0.5 0.6 0.3 1-0.1 1-0.9 0-0.9 0.5-1.6 1.1-1.6 0.6 0 0.9-0.7 0.5-1.5-0.3-0.9 0-1.5 0.8-1.5 1.7 0 2.1-10 0.5-14.8-1.3-4-6.3-9.7-7.8-8.8-0.5 0.4-1.1 0.1-1.3-0.6-0.5-1.5-24.1-2.1-30.8-0.8z"/>
		<path class="s0" d="m148.3 129c-13.4 2.2-14.3 2.5-17.1 5.1-2 1.8-2.2 2.9-2.2 14.3 0 8.1-0.7 15.8-1.9 22.2-2.7 13.7-3.2 21.1-2 26.4 0.6 2.5 1.4 7.4 1.8 11 1.4 12.2 4.3 14.5 18.1 14.5 7.4 0 10-0.4 12-1.8 1.3-0.9 2.1-1.7 1.7-1.7-0.5 0-0.1-0.8 0.9-1.7 1.4-1.5 1.6-3.1 1.1-11.3-0.4-5.2-0.3-10.1 0.2-10.8 1.9-3.1 4.7-0.6 9.8 9.3 7.6 14.4 8.8 15.3 21.3 17.1 7.7 1.1 10.6 1.1 11.6 0.3 0.8-0.6 1.4-0.8 1.4-0.5 0 1.6 3.2-2.7 3.9-5.2 0.9-3.2-0.1-6.6-6-19.2l-4.3-9.2 1.9-3.2c5.9-9.8 5.8-9.2 4.1-24.2-1.1-10.2-2-14.5-3.4-16.3-2.3-3.1-17.9-11.2-27.1-14-9.6-2.9-13.4-3.1-25.8-1.1zm23.5 30.2c0.7 0.7 1.2 2.4 1.2 3.8 0 4.3-3.7 6.2-8.4 4.4-1.6-0.6-2.3-7.3-0.9-8.7 1.1-1.2 6.8-0.8 8.1 0.5z"/>
		<path class="s0" d="m365 130.3c0 0.4-0.4 0.5-1 0.2-0.5-0.3-1-0.1-1 0.6 0 0.7-0.3 1-0.6 0.6-0.8-0.8-2.5 1-4.4 4.7-1.7 3.2-2 12.8-0.7 21.6l0.8 5.5-3.7-4c-2-2.2-6.2-7.8-9.3-12.5-7.3-10.9-11.5-13.9-21.4-15.3-6.5-0.9-7.8-0.9-10.1 0.6-5.7 3.8-5.7 3.9-6.2 38.8-0.3 17.7-0.9 33-1.5 34-1.2 2.3-1.1 4.2 0.3 7.6 1.2 2.9 1.5 3.8 1.7 5.1 0.3 2.3 6.3 4.2 13.4 4.2 13.7 0 15.7-1.8 15.7-13.9 0-11.8 0.9-18.1 2.6-18.1 0.8 0 3.5 4.2 6 9.2 2.6 5.1 6.6 11.8 9 15 6.7 8.7 11.8 11.1 22.9 10.8 8.2-0.2 8.5-0.2 8.5-1.7 0-0.8 0.4-1.2 0.8-0.9 0.5 0.3 1.5-0.4 2.3-1.6 0.8-1.1 1.9-2.6 2.6-3.3 0.7-0.7 0.9-1.5 0.6-1.9-0.4-0.3-0.1-0.6 0.5-0.6 1.8 0 1.5-7.8-0.5-15.7-1.4-5.5-1.7-11.6-1.8-31.3 0-33.5-0.4-34.5-14.3-37.5-7.3-1.5-11.2-1.6-11.2-0.2z"/>
		<path class="s0" d="m262.5 131.1c-3.8 0.6-13.1 0.9-20.5 0.6-14.3-0.4-16.4 0-19.3 3.8-1.6 2.2-1.8 5.9-2 41.2-0.2 37.4-0.1 38.9 1.8 41.5 2.9 4 8.7 5.9 19.9 6.7 12.3 0.8 38.6-0.3 44.6-1.9 4.3-1.2 7.9-3.8 8.4-6.3 0.2-0.7 0.6-2 1.1-3 1.1-2.5-0.1-10.2-2.1-13.2-2.4-3.7-8.1-4.8-24.6-4.9-15.1-0.1-17.5-0.7-16.2-4 0.6-1.6 1.5-1.7 5.8-1.2 11.7 1.4 21.3 1.7 23.6 0.8 1.4-0.5 2.8-1 3.3-1.1 0.7-0.1 3.3-2.6 5.6-5.4 3.2-4.1 2-12.6-2.6-17.5-2.5-2.7-2.6-2.7-18.3-3-16.8-0.4-18.9-0.9-17.5-5.1 0.9-3.1 4.4-3.5 13.4-1.6 10.6 2.1 19.4 1.8 22.9-0.9 3.9-3 5.5-4.6 4.5-4.6-0.4 0-0.2-0.4 0.6-0.9 1-0.6 1.4-2.6 1.3-6.1-0.1-6-2.8-11.1-6.9-12.9-3.7-1.7-18.2-2.2-26.8-1z"/>
		<path class="s0" d="m416.8 130.9c-13.5 0.6-13.6 0.7-16.9 6.5-1.9 3.2-0.1 14.5 2.6 17.2 2.2 2.1 3.3 2.4 10.9 2.4 11.5 0 12.1 0.6 11.3 12-0.4 4.7-1.1 10-1.6 11.9-1.9 6.4-3.1 18-2.1 20.5 0.5 1.3 1 5.1 1.1 8.3 0.2 4.2 0.9 6.8 2.4 9.1 1.2 1.7 2.5 2.9 2.8 2.5 0.4-0.3 0.7-0.2 0.7 0.4 0 1.8 6.1 2.1 15 0.9 10.1-1.4 13.7-3.4 14.6-8.3 0.4-1.9 0.7-14.8 0.8-28.6l0.1-25.2 8.5-0.6c9.9-0.8 10.8-1.1 13.5-4.6 2.1-2.9 3.3-12.9 2-16-0.5-1-0.9-2-0.9-2.3-0.2-0.8-4.6-5.1-4.6-4.4 0 0.4-0.6 0.1-1.4-0.5-1.6-1.4-40.3-2.2-58.8-1.2z"/>
	</g>
</svg>